<?xml version="1.0" encoding="utf-8"?>
<!-- Generator: Adobe Illustrator 23.0.2, SVG Export Plug-In . SVG Version: 6.00 Build 0)  -->
<svg version="1.1" id="Capa_1" xmlns="http://www.w3.org/2000/svg" xmlns:xlink="http://www.w3.org/1999/xlink" x="0px" y="0px"
	 viewBox="0 0 1131 279" style="enable-background:new 0 0 1131 279;" xml:space="preserve">
<style type="text/css">
	.st0{fill:#FF1313;}
</style>
<path class="st0" d="M483.8,93.3c-12.5-7.2-30.2-8.7-46.1-2.3c-17.8,6.4-32.1,22.7-37.4,41.9c-3,9.4-5.7,27.6,3.8,43.1
	c6.8,11.3,20,18.9,34.4,21.2c3.4,0.4,6,0.8,9.4,0.8c6.4,0,12.9-1,19-2.9c3.3-1,6.5-2.2,9.6-3.6c3-1.4,6.3-2.6,8.8-4.8
	c3.1-2.7,3.8-6.4,3-10.3c-0.8-3.8-2.7-8.9-6.3-10.9c-2.3-1.2-5.2-1.3-7.6-0.4c-6.4,3.4-14.4,6.4-22.3,6.8c-8.7,0.4-15.5-1.9-20-6.8
	c-4.2-4.5-4.9-11-4.9-16.6H449h37.8c4.9,0.4,11-1.9,12.5-7.2C504.2,125,500.4,103.5,483.8,93.3 M432,128.8c3-6,7.6-12.8,15.5-16.2
	c3.4-1.1,6.8-1.9,10.2-1.9c3.8,0,7.6,1.1,10.2,3.8c3.8,3.8,4.5,9.4,4.2,14.7h-14C449.4,128.8,441.1,128.8,432,128.8"/>
<path class="st0" d="M684.7,93.3c-9.1-6-20-7.6-31-5.7c-8.7,1.5-16.2,5.7-21.9,11.3c0.4-3.4,0-6.8-4.2-9.1h-0.4
	c-4.5-1.1-9.1-0.8-13.2-0.4c-5.7,0.4-9.4,6-9.8,10.6c-3.4,15.9-6,31.7-9.4,47.6c-2.7,12.8-4.9,25.7-7.4,38.5
	c-2.4,12.5-5.3,25-7.4,37.5c-0.5,3.3-0.2,7,2.2,9.3c3.5,3.3,9.6,2.6,14,2.2c3.1-0.3,6.3-1.1,8.8-3c4.4-3.4,4.5-8.9,5.6-13.8
	c2.2-10,3.1-16.6,4.6-24.8c0.2-1.2,0.4-2.5,0.6-3.7c0.1-0.6,0.3-2.1,0.5-3.8c6.6,7.6,12.8,9.8,20,11c16.6,2.3,34.7-4.2,47.2-17
	c12.5-12.5,18.9-31.7,18.1-52.1C702.1,113.7,695.3,100.9,684.7,93.3 M662.1,162.4c-5.3,5.7-14.7,11.3-24.9,9.1
	c-7.6-1.1-12.5-9.4-12.8-16.2c-1.5-15.1,5.3-34.4,21.5-41.2c3-1.1,5.7-1.5,8.7-1.5c3.8,0,7.2,0.8,10.2,3c4.2,3,6.8,7.9,7.6,14.4
	C673.4,142,669.6,154.1,662.1,162.4"/>
<path class="st0" d="M386,90.6c-1.8-0.8-3.9-0.9-5.8-1c-3.4-0.2-6.7,0-10.1,0c-3.1,0-5.8,0.2-8.5,1.8c-2.1,1.2-3.8,2.9-5.4,4.6
	c-3.8,4.2-7.2,7.9-11,12.1c-2.3,2.5-4.6,5-6.8,7.5c-1.6,1.8-3.1,3.8-4.7,5.7c-1.7,2.1-3.5,3.7-6.3,3.7c-0.4,0-6-0.2-6-0.3
	c1.5-7.9,3.4-16.2,4.9-24.9c2.2-10.1,4-20.3,6-30.5c0.7-3.6,1.5-7.2,1.5-10.9c0-2.4-0.4-4.4-1.9-6.4c-2.2-3-7.6-3-11-3
	c-5.3,0-11.2-0.4-14.3,4.6c-1.2,2-1.8,4.3-2.2,6.6c-4,22.1-8.7,44-12.5,66.1c-3.8,18.5-7.2,37.4-11,55.9c-0.8,6.8,0.8,11,4.9,12.1
	c2.3,0.4,4.9,0.8,6.8,0.8h4.5h2.3c4.9,0,9.8-4.2,10.6-9.4c1.5-8.7,3.4-17.4,4.9-26.1l1.5-9.1h9.8c2.3,5.3,4.9,10.6,7.2,15.9
	c3.8,7.6,6.8,15.5,10.6,22.7c3,8,15.6,6.6,22.1,5.2c2.6-0.6,6.8-2.6,7.4-5.5c0.4-2.2,0.2-4.4-0.6-6.4c-1.4-4.1-3.9-7.6-5.7-11.5
	c-2.3-4.9-4.6-9.9-7-14.8c-1.4-2.9-2.9-5.4-4.6-8.8c-0.4-0.8-4-7.6-3.7-7.9c5.3-5.7,10.2-11.3,15.5-17c3.8-4.1,7.4-8.2,11.1-12.4
	c2.9-3.2,5.9-6.4,8.5-9.9c0.9-1.3,1.7-2.7,1.8-4.3C389.1,93.3,388,91.5,386,90.6"/>
<path class="st0" d="M93.4,90.6c-4.5-0.8-8.7-0.4-12.5-0.4h-3.8l0.4-1.9c1.1-5.7,2.2-10.9,3.7-17c0.4-1.9,0-4.5-1.1-6
	c-1.1-1.5-3-3-4.9-3.4c-4.2-0.4-7.6-0.4-11.7-0.4c-4.9,0-9.8,3.8-10.6,9.1c-1.1,6-2.6,11.5-3.8,18.5c-4.9,0-11,0.4-14.7,5.7
	c-1.1,1.5-1.6,4-2,5.7c-0.5,2.2-0.9,4.6-0.6,6.9c0.7,6,5.5,7.8,10.9,7.8h1.1c-1.9,9.8-3.8,18.9-5.7,28.7L35.8,156
	c-1.5,9.4-0.8,17.4,2.3,23.4c4.2,7.9,12.8,14,23.4,15.5c2.3,0.4,5.3,0.8,8.7,0.8c3.4,0,7.7-0.2,10.4-2.4c1.5-1.2,2.5-3.1,3.1-4.9
	c1.3-3.7,1.8-7.6,1.9-11.5c0.2-5.7-4.6-7-9.3-8c-1.1,0-1.9-0.4-3.4-0.8c-3-0.4-4.5-1.9-5.7-3.8c-1.5-2.3-2.3-6-1.9-9.4
	c1.1-8.7,3-16.6,4.5-25.3c1.1-5.3,1.7-9.5,3.2-14.8h4.9c4.2,0,8.7,0,12.8-0.8c6.4-1.9,7.4-10.5,7.8-13.9
	C99.3,97.5,97.9,91.4,93.4,90.6"/>
<path class="st0" d="M162.7,50.6c-1.2-0.5-2.5-0.7-3.8-0.8c-5.8-0.5-13.4-1.5-18.5,1.9c-2.2,1.5-3.5,4.4-4.2,7
	c-0.9,3.3-1.5,7.6-1,11c0.9,5.9,7.6,6.2,12.4,6.2h2.3h1.9c6.1,0,10.9-3.4,12.3-9.5c0.9-4.1,4.1-13.1-1.1-15.7
	C162.9,50.7,162.8,50.7,162.7,50.6"/>
<path class="st0" d="M271.9,97.1c-1.6-1.3-3.4-2.3-5.2-3.2c-4.8-2.5-10-4.2-15.2-5.4c-7.9-1.5-16.6-1.5-24.9-0.4
	c-22.3,3.8-41.9,19.6-49.9,40c-6,15.9-5.7,32.5,1.5,45.3c5.7,10.6,16.2,18.5,28.3,21.9c5.3,1.1,10.6,1.9,15.9,1.9
	c4.5,0,9.4-0.4,14-1.1c5.5-0.9,10.9-2.8,15.9-5.2c4.4-2.1,10.1-4.6,12.5-9.2c1.5-2.9,1.4-6.1,0-9c-1.3-2.5-1.8-5.1-3.8-7.3
	c-2.3-2.5-5.4-3.1-8.7-2c-2,0.7-3.8,1.8-5.6,2.8c-9.7,5.3-21.7,8-32.2,3.1c-6.4-3-11-9.8-11.7-17c-1.5-11.3,3.8-23.4,12.8-31.3
	c8.7-7.6,21.1-9.5,32.1-6.8c2.3,0.6,4.3,2,6.3,3.1c4.6,2.3,9.2,4.8,13.9,1.3c4.2-3.2,9-9.2,8-14.8
	C275.5,100.7,273.9,98.7,271.9,97.1"/>
<path class="st0" d="M150.5,89.8c-2.7-0.4-5.4-0.3-8.1-0.3c-2.5,0-5.3,0.1-7.6,1.2c-3.4,1.5-5.7,4.9-6.4,9.8l-5.7,29.1
	c-1.2,6-2.4,12.1-3.5,18.1c-1.2,6.1-2.4,12.3-3.6,18.4c-1.1,5.5-2.2,10.3-3.2,16.5c-0.5,3.1-1.4,6.3,0.2,9.3
	c0.1,0.3,0.3,0.5,0.5,0.8c4.7,6.2,20.7,4.9,25.4-0.6c2.6-3,3-6.9,3.6-10.6c0.7-4.3,1.7-8.6,2.6-12.9c1.8-9.2,3.5-18.3,5.2-27.5
	c1.4-7.5,2.9-15.1,4.3-22.7c0.7-3.9,1.4-7.9,2-11.8c0.7-4.5,3.3-11.4-0.9-15c-1.3-1.1-3-1.5-4.6-1.8
	C150.7,89.8,150.6,89.8,150.5,89.8"/>
<path class="st0" d="M768,51.5c-1.1-0.4-2.3-0.6-3.4-0.7c-4.4-0.3-8.8-0.6-13.2-0.1c-2.1,0.2-4.2,0.5-5.9,1.8
	c-2.3,1.9-3.5,4.9-4,7.8c-2.3,12.5-4.9,25.7-7.2,38.1c-3.4,18.9-7.7,37.5-11,56.4c-1.9,11.4-4.7,24.7,3.8,34.2
	c3,3.3,7.9,5.3,12.1,6.1c4.2,0.8,8.5,1.6,12.7,0.7c3.9-0.8,6.7-3.7,8.4-7.1c1.8-3.6,3.1-8.1,2.7-12.2c-0.4-4.1-2.9-6.5-6.9-7.2
	c-1.9-0.4-3-0.8-3.4-1.5c-1.1-3-0.4-6,0-9.4c3.8-18.5,7.2-37.4,11-55.5c0.4-2.2,0.8-4.4,1.2-6.6c0.9-4.9,1.8-9.7,2.7-14.6
	c0.9-4.9,1.8-9.8,2.7-14.7c0.8-4.1,2.3-8.6,0.8-12.7C770.5,52.9,769.4,52,768,51.5"/>
<path class="st0" d="M991.1,95.2c-0.4-0.3-0.9-0.6-1.3-0.8c-10-5.5-21.2-7.8-32.6-7.3c-2.8,0.1-5.6,0.5-8.4,0.9
	c-12.5,1.9-22.7,7.9-27.9,16.6c-7.6,12.1-5.3,28.7,4.5,37.8c5.3,4.9,11.3,7.6,17.8,10.6c3.3,1.4,6.5,2.9,9.5,4.6
	c1.2,0.7,2.8,1.4,3.7,2.6c0.9,1.2,1.5,2.7,1.5,4.3c0.1,1.9-0.6,3.8-1.9,5.1c-3.1,3.3-8.3,4-12.6,3.9c-5.5-0.1-10.9-1.9-15.9-4.1
	c-0.2-0.1-0.3-0.1-0.5-0.2c-0.2-0.1-0.4-0.1-0.5-0.2l-1.1-0.8c-3.4-1.9-7.9-4.5-12.8-1.5c-3.4,1.9-5.7,4.9-7.9,8.7
	c-2,3.3-1.6,7.3,1,10.1c1.5,1.6,3.5,2.8,5.5,3.8c2.1,1.2,4.2,2.3,6.4,3.3c5.4,2.3,11,3.9,16.8,4.8c2.9,0.4,5.8,0.6,8.8,0.6
	c4.5,0,9.1-0.4,13.2-1.1c7.2-1.5,17-5.3,23.4-14c9.8-12.1,7.9-31-3.4-40.4c-4.9-4.5-11-7.2-17-10.2c-4.5-1.9-8.7-3.8-12.1-6.4
	c-1.5-1.1-3-3-3.4-4.9c-0.4-1.9,0.4-3.8,1.5-5.3c4.5-4.5,12.1-4.2,18.9-3c3,0.4,5.3,1.5,7.9,2.3c1.7,0.7,3.5,1.2,5.2,2
	c1.7,0.8,3.5,1.1,5.4,0.8c4.5-0.8,7.9-5.3,9.8-9.1l0.8-1.5c1.4-2.8,1.9-6.3,0.3-9.1C993,96.7,992.1,95.9,991.1,95.2"/>
<path class="st0" d="M889,90c-4.9-0.7-9.9-0.7-14.7-0.1c-4.5,0.6-7.2,4.8-8.5,8.8c-0.9,2.6-1.2,5.4-1.7,8c-2.4,11.8-4.1,24-7.7,35.5
	c-2.5,8-6.9,15.7-13.5,21.1c-3.6,2.9-7.8,5-12.4,5.9c-6.8,1.1-11.7,0.4-14-3c-3-4.2-1.9-9.4-1.5-14.4c1.5-9.4,3.8-18.1,5.3-27.6
	c1.5-8.7,3.4-17,4.9-25.3c0.8-2.3,0.4-5.3-1.1-7.2c-1.1-1.5-3-3-4.9-3c-4.5-0.4-9.4-0.4-14.4,0c-5.7,0.8-8.7,6.4-9.4,11
	c-1.5,7.9-3.4,16.2-4.5,24.2c-1.9,11-4.2,21.5-6,32.5c-1.9,12.5-0.4,22.3,4.9,29.5c4.9,6.8,14.4,10.6,25.3,10.6h2.3
	c12.1-0.4,23.8-6,32.9-15.5c-0.4,1.9-0.8,4.5-0.4,6.8c0.6,3.3,2.9,5.2,6.1,5.7c7.6,1.4,19.9,1.3,21.9-8.4
	c4.5-21.9,8.7-43.8,12.8-65.7c0,0,4.1-20.7,4.2-20.8c0.7-3.4,0.7-7.5-3.5-8.3C890.5,90.2,889.8,90.1,889,90"/>
<path class="st0" d="M576.3,90.6c-4.5-0.8-8.7-0.4-12.5-0.4h-3.8l0.4-1.9c1.1-5.7,2.2-10.9,3.7-17c0.4-1.9,0-4.5-1.1-6
	c-1.1-1.5-3-3-4.9-3.4c-4.2-0.4-7.6-0.4-11.7-0.4c-4.9,0-9.8,3.8-10.6,9.1c-1.1,6-2.6,11.5-3.8,18.5c-4.9,0-11,0.4-14.7,5.7
	c-1.1,1.5-1.6,4-2,5.7c-0.5,2.2-0.9,4.6-0.6,6.9c0.7,6,5.5,7.8,10.9,7.8h1.1c-1.9,9.8-3.8,18.9-5.7,28.7l-2.3,12.1
	c-1.5,9.4-0.8,17.4,2.3,23.4c4.2,7.9,12.8,14,23.4,15.5c2.3,0.4,5.3,0.8,8.7,0.8c3.4,0,7.7-0.2,10.4-2.4c1.5-1.2,2.5-3.1,3.1-4.9
	c1.3-3.7,1.8-7.6,1.9-11.5c0.2-5.7-4.6-7-9.3-8c-1.1,0-1.9-0.4-3.4-0.8c-3-0.4-4.5-1.9-5.7-3.8c-1.5-2.3-2.3-6-1.9-9.4
	c1.1-8.7,3-16.6,4.5-25.3c1.1-5.3,1.7-9.5,3.2-14.8h4.9c4.2,0,8.7,0,12.8-0.8c6.4-1.9,7.4-10.5,7.8-13.9
	C582.2,97.5,580.8,91.4,576.3,90.6"/>
<path class="st0" d="M1104.3,96.7c-2-2.4-4.9-3.8-8-3.8h-11.5c-1.1,0-2.2-0.5-2.9-1.4c-0.7-0.9-1-2-0.8-3.1l2.3-11.3
	c0.6-3.1-0.2-6.2-2.1-8.6c-2-2.4-4.9-3.8-8-3.8h-7.2c-4.9,0-9.2,3.5-10.2,8.3l-3.4,16.8c-0.3,1.7-1.9,3-3.7,3h-17.1
	c-4.9,0-9.2,3.5-10.2,8.4l-1.2,6.1c-0.6,3,0.2,6.2,2.2,8.6c2,2.4,4.9,3.8,8,3.8h11.5c1.1,0,2.2,0.5,2.9,1.4c0.7,0.9,1,2,0.8,3.1
	l-2.3,11.3c-0.6,3.1,0.2,6.2,2.1,8.6c2,2.4,4.9,3.8,8,3.8h7.2c4.9,0,9.2-3.5,10.2-8.3l3.4-16.8c0.3-1.7,1.9-3,3.7-3h17.1
	c4.9,0,9.2-3.5,10.2-8.4l1.2-6.1C1107,102.2,1106.2,99.1,1104.3,96.7"/>
</svg>
